<svg width="48" height="48" viewBox="0 0 48 48" fill="none" xmlns="http://www.w3.org/2000/svg">
<path fill-rule="evenodd" clip-rule="evenodd" d="M1.9998 24C1.9998 11.8497 11.8495 2 23.9998 2C36.1501 2 45.9998 11.8497 45.9998 24C45.9998 36.1503 36.1501 46 23.9998 46C11.8495 46 1.9998 36.1503 1.9998 24ZM12.7499 15.25C12.7499 12.8338 14.7086 10.875 17.1249 10.875H30.8749C33.2911 10.875 35.2499 12.8338 35.2499 15.25V32.75C35.2499 35.1662 33.2911 37.125 30.8749 37.125H17.1249C14.7086 37.125 12.7499 35.1662 12.7499 32.75V15.25ZM28.3749 17.75H19.6249C19.2797 17.75 18.9999 18.0298 18.9999 18.375V19.625C18.9999 19.9702 19.2797 20.25 19.6249 20.25H28.3749C28.7201 20.25 28.9999 19.9702 28.9999 19.625V18.375C28.9999 18.0298 28.7201 17.75 28.3749 17.75ZM28.3749 22.75H19.6249C19.2797 22.75 18.9999 23.0298 18.9999 23.375V24.625C18.9999 24.9702 19.2797 25.25 19.6249 25.25H28.3749C28.7201 25.25 28.9999 24.9702 28.9999 24.625V23.375C28.9999 23.0298 28.7201 22.75 28.3749 22.75ZM19.6249 27.75C19.2797 27.75 18.9999 28.0298 18.9999 28.375V29.625C18.9999 29.9702 19.2797 30.25 19.6249 30.25H24.6249C24.9701 30.25 25.2499 29.9702 25.2499 29.625V28.375C25.2499 28.0298 24.9701 27.75 24.6249 27.75H19.6249Z" fill="black"/>
</svg>
