<svg width="48" height="48" viewBox="0 0 48 48" fill="none" xmlns="http://www.w3.org/2000/svg">
<path d="M23.9998 46C11.8496 46 1.99982 36.1503 1.99982 24C1.99982 11.8497 11.8496 2 23.9998 2C36.1501 2 45.9998 11.8497 45.9998 24C45.9998 36.1503 36.1501 46 23.9998 46ZM21.8785 13.2929L12.5856 22.5858C11.8046 23.3669 11.8046 24.6332 12.5856 25.4142L21.8785 34.7071C22.269 35.0977 22.9022 35.0977 23.2927 34.7071L24.7069 33.2929C25.0974 32.9024 25.0974 32.2692 24.7069 31.8787L18.8282 26H34.9998C35.5521 26 35.9998 25.5523 35.9998 25V23C35.9998 22.4477 35.5521 22 34.9998 22H18.8283L24.7069 16.1214C25.0974 15.7308 25.0974 15.0977 24.7069 14.7071L23.2927 13.2929C22.9022 12.9024 22.269 12.9024 21.8785 13.2929Z" fill="black"/>
</svg>
