<svg width="48" height="48" viewBox="0 0 48 48" fill="none" xmlns="http://www.w3.org/2000/svg">
<path d="M3.87849 21.8788L19.1714 6.58586C19.5619 6.19534 20.1951 6.19534 20.5856 6.58586L23.3979 9.39814C23.7946 9.79492 23.7874 10.4404 23.3817 10.8281L12.7398 21.0001H42.9998C43.5521 21.0001 43.9998 21.4478 43.9998 22.0001V26.0001C43.9998 26.5524 43.5521 27.0001 42.9998 27.0001H12.7398L23.3817 37.172C23.7874 37.5597 23.7946 38.2052 23.3979 38.602L20.5856 41.4143C20.1951 41.8048 19.5619 41.8048 19.1714 41.4143L3.87849 26.1214C2.70691 24.9498 2.70691 23.0503 3.87849 21.8788Z" fill="black"/>
</svg>
