<svg width="48" height="48" viewBox="0 0 48 48" fill="none" xmlns="http://www.w3.org/2000/svg">
<path d="M22.2927 13.2929C21.9022 12.9024 21.269 12.9024 20.8785 13.2929L11.5856 22.5858C10.8046 23.3668 10.8046 24.6332 11.5856 25.4142L20.8785 34.7071C21.269 35.0976 21.9022 35.0976 22.2927 34.7071L23.7069 33.2929C24.0974 32.9024 24.0974 32.2692 23.7069 31.8787L17.8282 26H33.9998C34.5521 26 34.9998 25.5523 34.9998 25V23C34.9998 22.4477 34.5521 22 33.9998 22H17.8282L23.7069 16.1213C24.0974 15.7308 24.0974 15.0976 23.7069 14.7071L22.2927 13.2929Z" fill="black"/>
<path d="M23.9998 2C11.8496 2 1.99982 11.8497 1.99982 24C1.99982 36.1503 11.8496 46 23.9998 46C36.1501 46 45.9998 36.1503 45.9998 24C45.9998 11.8497 36.1501 2 23.9998 2ZM5.99982 24C5.99982 14.0589 14.0587 6 23.9998 6C33.9409 6 41.9998 14.0589 41.9998 24C41.9998 33.9411 33.9409 42 23.9998 42C14.0587 42 5.99982 33.9411 5.99982 24Z" fill="black"/>
</svg>
