<svg width="48" height="48" viewBox="0 0 48 48" fill="none" xmlns="http://www.w3.org/2000/svg">
<path fill-rule="evenodd" clip-rule="evenodd" d="M24 2C11.8497 2 2 11.8497 2 24C2 36.1503 11.8497 46 24 46C36.1503 46 46 36.1503 46 24C46 11.8497 36.1503 2 24 2ZM18.5832 18.0833C18.5832 15.0933 21.0099 12.6666 23.9999 12.6666C26.9899 12.6666 29.4166 15.0933 29.4166 18.0833C29.4166 21.0733 26.9899 23.5 23.9999 23.5C21.0099 23.5 18.5832 21.0733 18.5832 18.0833ZM14.7916 32.9466C14.7916 29.415 18.0741 25.125 23.9999 25.125C29.9257 25.125 33.2082 29.415 33.2082 32.9466C33.2082 34.875 32.1249 34.875 28.3332 34.875H19.6666C15.8749 34.875 14.7916 34.875 14.7916 32.9466Z" fill="black"/>
</svg>
