<svg width="48" height="48" viewBox="0 0 48 48" fill="none" xmlns="http://www.w3.org/2000/svg">
<path fill-rule="evenodd" clip-rule="evenodd" d="M1.99982 24C1.99982 11.8497 11.8496 2 23.9998 2C36.1501 2 45.9998 11.8497 45.9998 24C45.9998 36.1503 36.1501 46 23.9998 46C11.8496 46 1.99982 36.1503 1.99982 24ZM18.1665 17.6667C18.1665 14.4467 20.7798 11.8333 23.9998 11.8333C27.2198 11.8333 29.8331 14.4467 29.8331 17.6667C29.8331 20.8867 27.2198 23.5 23.9998 23.5C20.7798 23.5 18.1665 20.8867 18.1665 17.6667ZM14.0831 33.6733C14.0831 29.87 17.6181 25.25 23.9998 25.25C30.3815 25.25 33.9165 29.87 33.9165 33.6733C33.9165 35.75 32.7498 35.75 28.6665 35.75H19.3331C15.2498 35.75 14.0831 35.75 14.0831 33.6733Z" fill="black"/>
</svg>
